<?xml version="1.0" encoding="utf-8"?>
<svg xmlns="http://www.w3.org/2000/svg" width="661" height="82" viewBox="0 0 661 82" fill="none">
<g clip-path="url(#clip0_495_1520)">
<g clip-path="url(#clip1_495_1520)">
<path d="M96.6267 27.4554C92.3394 27.1321 88.4421 28.8108 85.7612 31.6536C81.2828 36.4027 75.0533 39.1031 68.5294 39.1031H68.5243C62.0004 39.1031 55.7709 36.4052 51.2925 31.6536C48.6116 28.8082 44.7117 27.1295 40.427 27.4554C33.6888 27.965 28.2496 33.6117 27.9655 40.3732C27.6375 48.1228 33.8127 54.5066 41.4782 54.5066C45.2412 54.5066 48.64 52.9676 51.0884 50.4818C55.7425 45.756 61.9022 42.8175 68.5294 42.8175C75.1567 42.8175 81.3164 45.756 85.9704 50.4818C88.4188 52.965 91.8177 54.5066 95.5781 54.5066C103.244 54.5066 109.419 48.1228 109.091 40.3732C108.807 33.6117 103.368 27.965 96.6293 27.4528L96.6267 27.4554Z" fill="#2AD356"/>
<path d="M69.5754 0.362812C65.2907 0.039481 61.3908 1.71822 58.71 4.56095C54.229 9.31004 47.9995 12.0105 41.4756 12.0105H41.4704C34.9465 12.0105 28.717 9.31004 24.2361 4.56095C21.5578 1.71822 17.6605 0.039481 13.3732 0.362812C6.63492 0.874969 1.19575 6.51904 0.911651 13.2831C0.58623 21.0327 6.76148 27.4166 14.4244 27.4166C18.1874 27.4166 21.5862 25.8775 24.032 23.3918C28.6886 18.666 34.8458 15.7275 41.473 15.7275C48.1002 15.7275 54.26 18.666 58.914 23.3918C61.3624 25.875 64.7613 27.4166 68.5217 27.4166C76.1871 27.4166 82.3624 21.0327 82.0344 13.2831C81.7503 6.52163 76.3111 0.874969 69.5728 0.365399L69.5754 0.362812Z" fill="#2AD356"/>
<path d="M69.5754 54.548C65.2907 54.2247 61.3908 55.9034 58.71 58.7461C54.229 63.4952 47.9995 66.1957 41.4756 66.1957H41.473C34.9491 66.1957 28.7196 63.4952 24.2386 58.7461C21.5578 55.9034 17.6579 54.2247 13.3732 54.548C6.63492 55.0576 1.19575 60.7042 0.911651 67.4657C0.58623 75.2154 6.76147 81.5992 14.4244 81.5992C18.1874 81.5992 21.5862 80.0601 24.032 77.5744C28.6886 72.8486 34.8458 69.9101 41.473 69.9101C48.1002 69.9101 54.26 72.8486 58.9166 77.5744C61.365 80.0576 64.7638 81.5992 68.5243 81.5992C76.1897 81.5992 82.365 75.2154 82.037 67.4657C81.7529 60.7042 76.3137 55.0576 69.5754 54.548Z" fill="#2AD356"/>
</g>
<g clip-path="url(#clip2_495_1520)">
<path d="M140.571 7.65889H162.926C168.129 7.65889 172.913 8.53746 177.286 10.2653C181.659 12.0127 185.437 14.3751 188.6 17.3525C191.763 20.3298 194.223 23.8539 195.97 27.9051C197.708 31.966 198.577 36.3101 198.577 40.9372C198.577 45.5644 197.698 49.9084 195.97 53.9694C194.223 58.0303 191.763 61.5446 188.6 64.522C185.437 67.4994 181.659 69.8617 177.286 71.6091C172.913 73.3565 168.129 74.2156 162.926 74.2156H140.571V7.65889ZM162.916 63.7703C166.587 63.7703 169.916 63.1944 172.903 62.0522C175.89 60.9101 178.438 59.3384 180.566 57.3372C182.694 55.336 184.324 52.9444 185.466 50.1525C186.609 47.3606 187.185 44.2953 187.185 40.9275C187.185 37.5596 186.609 34.5627 185.466 31.7513C184.324 28.9203 182.684 26.5189 180.566 24.5275C178.448 22.536 175.89 20.9546 172.903 19.8125C169.916 18.6703 166.587 18.0944 162.916 18.0944H151.505V63.7508H162.916V63.7703Z" fill="#14352B"/>
<path d="M228.067 75.182C224.651 75.182 221.42 74.528 218.423 73.2296C215.406 71.9313 212.78 70.1449 210.525 67.9094C208.27 65.6544 206.523 62.9894 205.234 59.9339C203.975 56.8491 203.331 53.5399 203.331 49.9963C203.331 46.4527 203.975 43.1239 205.234 40.0587C206.494 36.9739 208.26 34.3187 210.525 32.0832C212.79 29.8477 215.406 28.0613 218.423 26.7629C221.439 25.4646 224.651 24.8106 228.067 24.8106C231.484 24.8106 234.715 25.4646 237.712 26.7629C240.729 28.0613 243.354 29.8477 245.609 32.0832C247.864 34.3382 249.612 37.0032 250.9 40.0587C252.16 43.1434 252.804 46.4527 252.804 49.9963V53.3251H213.337C213.727 55.3653 214.342 57.1615 215.24 58.7429C216.129 60.3244 217.232 61.6715 218.569 62.7844C219.897 63.8972 221.38 64.7368 223.001 65.3127C224.621 65.8887 226.32 66.1718 228.087 66.1718C230.566 66.1718 232.685 65.8399 234.471 65.176C236.258 64.5122 237.673 63.7313 238.747 62.8527C240.006 61.9058 241.07 60.8027 241.88 59.5239H252.355C251.145 62.5013 249.475 65.1272 247.318 67.4213C246.361 68.3682 245.278 69.3249 244.087 70.262C242.876 71.2187 241.48 72.0484 239.899 72.7903C238.317 73.5127 236.531 74.1082 234.579 74.5572C232.607 74.9965 230.449 75.2113 228.116 75.2113L228.087 75.182H228.067ZM242.33 45.2325C242.076 43.8365 241.607 42.4406 240.895 41.0446C240.192 39.6487 239.245 38.4382 238.034 37.3741C236.843 36.3296 235.408 35.4706 233.759 34.797C232.109 34.1429 230.205 33.8013 228.048 33.8013C226.398 33.8013 224.797 34.0551 223.245 34.5627C221.693 35.0703 220.268 35.8122 218.969 36.7982C217.671 37.7744 216.578 38.9849 215.689 40.4199C214.801 41.8549 214.176 43.446 213.786 45.2227H242.32V45.2422L242.33 45.2325Z" fill="#14352B"/>
<path d="M279.435 75.182C276.203 75.182 273.206 74.5768 270.444 73.376C267.681 72.1753 265.28 70.4767 263.22 68.2901C261.17 66.1034 259.55 63.4579 258.368 60.3439C257.187 57.2494 256.601 53.7741 256.601 49.9767C256.601 46.1794 257.187 42.7237 258.368 39.6096C259.55 36.4956 261.16 33.8501 263.22 31.6634C265.28 29.4767 267.701 27.7782 270.444 26.5775C273.206 25.367 276.203 24.7715 279.435 24.7715C281.914 24.7715 284.101 25.162 286.004 25.9137C287.908 26.6751 289.489 27.4951 290.749 28.3932C292.262 29.467 293.58 30.6482 294.653 31.9075H295.122V7.65889H305.108V74.2253H295.122V68.046H294.653C293.58 69.3736 292.281 70.5841 290.749 71.6677C289.489 72.556 287.908 73.3663 286.004 74.0887C284.101 74.811 281.914 75.182 279.435 75.182ZM281.338 66.162C285.399 66.162 288.708 64.7856 291.276 62.0229C293.833 59.2603 295.132 55.2579 295.132 49.9865C295.132 44.7151 293.853 40.7127 291.276 37.9696C288.699 35.207 285.399 33.8306 281.338 33.8306C277.023 33.8306 273.577 35.207 270.971 37.9696C268.365 40.7322 267.066 44.7346 267.066 49.9865C267.066 55.2384 268.365 59.2603 270.971 62.0229C273.568 64.7856 277.014 66.162 281.338 66.162Z" fill="#14352B"/>
<path d="M333.652 75.182C327.688 75.182 323.031 73.4639 319.683 69.9984C316.315 66.5427 314.646 61.447 314.646 54.7308V25.7184H324.632V53.7644C324.632 58.0791 325.589 61.2225 327.492 63.1748C329.396 65.1467 332.237 66.1229 336.044 66.1229C337.947 66.1229 339.695 65.7715 341.335 65.0784C342.955 64.3853 344.361 63.4091 345.562 62.1791C346.753 60.9491 347.7 59.4556 348.373 57.6984C349.027 55.9608 349.369 54.0084 349.369 51.8608V25.7184H359.355V74.2253H349.369V67.5775H348.9C348.012 68.9734 346.85 70.2327 345.386 71.3846C344.127 72.3315 342.545 73.2003 340.642 73.991C338.738 74.7817 336.415 75.182 333.701 75.182H333.672H333.652Z" fill="#14352B"/>
<path d="M390.232 75.182C386.816 75.182 383.594 74.5572 380.617 73.3272C377.639 72.0972 375.062 70.3498 372.905 68.0948C370.747 65.8398 369.049 63.1748 367.819 60.0998C366.569 57.0151 365.964 53.6472 365.964 49.967C365.964 46.2867 366.589 42.9091 367.819 39.8341C369.049 36.7494 370.747 34.0941 372.905 31.8586C375.062 29.6036 377.639 27.866 380.617 26.6263C383.594 25.3963 386.796 24.7715 390.232 24.7715C392.643 24.7715 394.83 25.0253 396.802 25.5329C398.774 26.0405 400.521 26.7141 402.073 27.5341C403.626 28.3541 404.973 29.301 406.115 30.3748C407.257 31.4486 408.272 32.5322 409.161 33.606C411.181 36.1441 412.646 39.0629 413.534 42.3625H403.079C402.571 40.781 401.751 39.346 400.599 38.0867C399.643 37.0129 398.344 36.0367 396.695 35.1386C395.045 34.2503 392.887 33.811 390.232 33.811C388.329 33.811 386.542 34.2015 384.863 34.9532C383.184 35.7048 381.73 36.7884 380.49 38.1844C379.26 39.5803 378.264 41.2789 377.542 43.2703C376.819 45.2715 376.448 47.4972 376.448 49.967C376.448 52.4367 376.819 54.682 377.542 56.6636C378.264 58.6648 379.26 60.3536 380.49 61.7496C381.739 63.1455 383.184 64.2291 384.863 64.9808C386.542 65.7422 388.329 66.1229 390.232 66.1229C392.956 66.1229 395.182 65.6836 396.88 64.7953C398.598 63.907 399.965 62.9308 400.97 61.8472C402.112 60.6367 402.971 59.2213 403.547 57.5715H413.534C412.646 60.9394 411.191 63.8874 409.161 66.406C408.272 67.4798 407.257 68.5439 406.115 69.5884C404.973 70.6329 403.626 71.5798 402.073 72.3998C400.521 73.2198 398.754 73.8836 396.802 74.401C394.83 74.9086 392.643 75.1624 390.232 75.1624V75.182Z" fill="#14352B"/>
<path d="M421.617 34.7677H415.906V25.7282H421.617V15.2536H431.603V25.7282H446.353V34.7677H431.603V65.2053H446.822V74.2448H421.617V34.7677Z" fill="#14352B"/>
<path d="M458.419 18.602C456.769 18.602 455.373 18.026 454.231 16.8839C453.089 15.7417 452.513 14.3458 452.513 12.696C452.513 11.0463 453.089 9.6308 454.231 8.44961C455.373 7.26842 456.769 6.70222 458.419 6.70222C460.069 6.70222 461.484 7.28794 462.646 8.44961C463.827 9.6308 464.413 11.0463 464.413 12.696C464.413 14.3458 463.827 15.7417 462.646 16.8839C461.465 18.026 460.069 18.602 458.419 18.602ZM453.479 25.7379H463.466V74.2449H453.479V25.7379Z" fill="#14352B"/>
<path d="M468.22 25.7379H478.695L489.15 65.2053H495.329L505.784 25.7379H516.239L502.924 74.2449H481.526L468.21 25.7379H468.23H468.22Z" fill="#14352B"/>
<path d="M542.879 75.182C539.462 75.182 536.231 74.528 533.234 73.2296C530.218 71.9313 527.592 70.1449 525.337 67.9094C523.082 65.6544 521.335 62.9894 520.046 59.9339C518.787 56.8491 518.142 53.5399 518.142 49.9963C518.142 46.4527 518.787 43.1239 520.046 40.0587C521.305 36.9739 523.072 34.3187 525.337 32.0832C527.592 29.8282 530.218 28.0613 533.234 26.7629C536.251 25.4646 539.462 24.8106 542.879 24.8106C546.296 24.8106 549.527 25.4646 552.524 26.7629C555.54 28.0613 558.166 29.8477 560.421 32.0832C562.676 34.3382 564.424 37.0032 565.712 40.0587C566.971 43.1434 567.616 46.4527 567.616 49.9963V53.3251H528.148C528.539 55.3653 529.154 57.1615 530.052 58.7429C530.94 60.3244 532.043 61.6715 533.381 62.7844C534.708 63.8972 536.192 64.7368 537.813 65.3127C539.433 65.8887 541.132 66.1718 542.899 66.1718C545.378 66.1718 547.496 65.8399 549.283 65.176C551.05 64.5025 552.485 63.7313 553.559 62.8527C554.818 61.9058 555.882 60.8027 556.692 59.5239H567.167C565.956 62.5013 564.287 65.1272 562.13 67.4213C561.173 68.3682 560.089 69.3249 558.898 70.262C557.688 71.2187 556.292 72.0484 554.71 72.7903C553.129 73.5127 551.343 74.1082 549.39 74.5572C547.418 74.9965 545.261 75.2113 542.928 75.2113L542.899 75.182H542.879ZM557.141 45.2325C556.887 43.8365 556.419 42.4406 555.706 41.0446C554.994 39.6487 554.056 38.4382 552.846 37.3741C551.655 36.3296 550.22 35.4706 548.57 34.797C546.921 34.1429 545.017 33.8013 542.86 33.8013C541.21 33.8013 539.609 34.0551 538.057 34.5627C536.505 35.0703 535.079 35.8122 533.781 36.7982C532.483 37.7744 531.389 38.9849 530.501 40.4199C529.613 41.8549 528.988 43.446 528.597 45.2227H557.131V45.2422L557.141 45.2325Z" fill="#14352B"/>
<path d="M580.648 75.2211C578.998 75.2211 577.602 74.6451 576.46 73.503C575.318 72.3608 574.742 70.9649 574.742 69.3151C574.742 67.6653 575.318 66.2499 576.46 65.0687C577.602 63.8875 578.998 63.3213 580.648 63.3213C582.298 63.3213 583.713 63.907 584.875 65.0687C586.056 66.2499 586.642 67.6653 586.642 69.3151C586.642 70.9649 586.056 72.3608 584.875 73.503C583.694 74.6451 582.298 75.2211 580.648 75.2211Z" fill="#14352B"/>
<path d="M614.463 75.1624C611.242 75.1624 608.255 74.5572 605.511 73.3565C602.759 72.1558 600.357 70.4669 598.307 68.29C596.247 66.1131 594.637 63.4677 593.475 60.3731C592.304 57.2786 591.718 53.8327 591.718 50.0353C591.718 46.2379 592.304 42.8017 593.475 39.7072C594.646 36.6127 596.257 33.9672 598.307 31.7903C600.357 29.6134 602.759 27.9246 605.511 26.7238C608.264 25.5231 611.242 24.9179 614.463 24.9179C616.923 24.9179 619.11 25.2986 621.004 26.06C622.897 26.8215 624.479 27.6415 625.748 28.52C627.261 29.5938 628.559 30.7653 629.633 32.0246H630.111V25.8648H640.069V74.2058H630.111V67.5677H629.633C628.559 68.9636 627.261 70.2229 625.748 71.3553C624.479 72.3022 622.907 73.171 621.004 73.9617C619.11 74.7524 616.923 75.1429 614.463 75.1429V75.1624ZM616.357 66.1522C620.398 66.1522 623.708 64.7758 626.265 62.0327C628.823 59.2798 630.102 55.2872 630.102 50.045C630.102 44.8029 628.823 40.8005 626.265 38.0574C623.708 35.3046 620.398 33.9379 616.357 33.9379C612.062 33.9379 608.616 35.3143 606.029 38.0574C603.432 40.8103 602.144 44.8029 602.144 50.045C602.144 55.2872 603.442 59.2896 606.029 62.0327C608.616 64.7855 612.062 66.1522 616.357 66.1522Z" fill="#14352B"/>
<path d="M654.467 18.7581C652.827 18.7581 651.431 18.1919 650.299 17.0498C649.167 15.9077 648.591 14.5215 648.591 12.8815C648.591 11.2415 649.157 9.83575 650.299 8.66432C651.441 7.49289 652.827 6.90718 654.467 6.90718C656.107 6.90718 657.513 7.49289 658.685 8.66432C659.856 9.83575 660.442 11.2415 660.442 12.8815C660.442 14.5215 659.856 15.9174 658.685 17.0498C657.513 18.1919 656.107 18.7581 654.467 18.7581ZM649.538 25.8648H659.495V74.2058H649.538V25.8648Z" fill="#14352B"/>
</g>
</g>
<defs>
<clipPath id="clip0_495_1520">
<rect width="660.881" height="82" fill="white"/>
</clipPath>
<clipPath id="clip1_495_1520">
<rect width="108.202" height="81.2752" fill="white" transform="translate(0.898743 0.324036)"/>
</clipPath>
<clipPath id="clip2_495_1520">
<rect width="520.31" height="68.5188" fill="white" transform="translate(140.571 6.70222)"/>
</clipPath>
</defs>
</svg>