<?xml version="1.0" encoding="utf-8"?>
<svg xmlns="http://www.w3.org/2000/svg" width="677" height="84" viewBox="0 0 677 84" fill="none">
<g clip-path="url(#clip0_210_499)">
<g clip-path="url(#clip1_210_499)">
<path d="M98.9834 28.1251C94.5915 27.7938 90.5992 29.5135 87.8529 32.4256C83.2653 37.2905 76.8839 40.0568 70.2009 40.0568H70.1956C63.5125 40.0568 57.1311 37.2932 52.5435 32.4256C49.7973 29.5109 45.8023 27.7912 41.413 28.1251C34.5104 28.6471 28.9386 34.4314 28.6476 41.3579C28.3116 49.2965 34.6374 55.8361 42.4898 55.8361C46.3446 55.8361 49.8264 54.2595 52.3345 51.7131C57.102 46.872 63.412 43.8619 70.2009 43.8619C76.9897 43.8619 83.2997 46.872 88.0673 51.7131C90.5754 54.2568 94.0571 55.8361 97.9092 55.8361C105.762 55.8361 112.088 49.2965 111.752 41.3579C111.461 34.4314 105.889 28.6471 98.986 28.1224L98.9834 28.1251Z" fill="#2AD356"/>
<path d="M71.2724 0.371679C66.8831 0.0404614 62.8881 1.76014 60.1419 4.67221C55.5516 9.53713 49.1702 12.3035 42.4872 12.3035H42.4819C35.7989 12.3035 29.4174 9.53713 24.8271 4.67221C22.0836 1.76014 18.0912 0.0404614 13.6993 0.371679C6.79673 0.896328 1.22489 6.67806 0.933862 13.6071C0.600504 21.5458 6.92636 28.0853 14.7761 28.0853C18.6309 28.0853 22.1127 26.5087 24.6181 23.9623C29.3883 19.1212 35.6957 16.1111 42.4845 16.1111C49.2734 16.1111 55.5834 19.1212 60.3509 23.9623C62.859 26.5061 66.3408 28.0853 70.1929 28.0853C78.0453 28.0853 84.3712 21.5458 84.0352 13.6071C83.7442 6.68071 78.1723 0.896328 71.2697 0.374329L71.2724 0.371679Z" fill="#2AD356"/>
<path d="M71.2724 55.8785C66.8831 55.5472 62.8881 57.2669 60.1419 60.179C55.5516 65.0439 49.1702 67.8102 42.4872 67.8102H42.4845C35.8015 67.8102 29.4201 65.0439 24.8298 60.179C22.0836 57.2669 18.0886 55.5472 13.6993 55.8785C6.79673 56.4004 1.22489 62.1848 0.933862 69.1113C0.600504 77.0499 6.92636 83.5894 14.7761 83.5894C18.6309 83.5894 22.1127 82.0128 24.6181 79.4664C29.3883 74.6254 35.6957 71.6153 42.4845 71.6153C49.2734 71.6153 55.5834 74.6254 60.3536 79.4664C62.8617 82.0102 66.3434 83.5894 70.1956 83.5894C78.048 83.5894 84.3738 77.0499 84.0378 69.1113C83.7468 62.1848 78.175 56.4004 71.2724 55.8785Z" fill="#2AD356"/>
</g>
<g clip-path="url(#clip2_210_499)">
<path d="M144 7.84568H166.9C172.23 7.84568 177.13 8.74568 181.61 10.5157C186.09 12.3057 189.96 14.7257 193.2 17.7757C196.44 20.8257 198.96 24.4357 200.75 28.5857C202.53 32.7457 203.42 37.1957 203.42 41.9357C203.42 46.6757 202.52 51.1257 200.75 55.2857C198.96 59.4457 196.44 63.0457 193.2 66.0957C189.96 69.1457 186.09 71.5657 181.61 73.3557C177.13 75.1457 172.23 76.0257 166.9 76.0257H144V7.84568ZM166.89 65.3257C170.65 65.3257 174.06 64.7357 177.12 63.5657C180.18 62.3957 182.79 60.7857 184.97 58.7357C187.15 56.6857 188.82 54.2357 189.99 51.3757C191.16 48.5157 191.75 45.3757 191.75 41.9257C191.75 38.4757 191.16 35.4057 189.99 32.5257C188.82 29.6257 187.14 27.1657 184.97 25.1257C182.8 23.0857 180.18 21.4657 177.12 20.2957C174.06 19.1257 170.65 18.5357 166.89 18.5357H155.2V65.3057H166.89V65.3257Z" fill="white"/>
<path d="M233.63 77.0157C230.13 77.0157 226.82 76.3457 223.75 75.0157C220.66 73.6857 217.97 71.8557 215.66 69.5657C213.35 67.2557 211.56 64.5257 210.24 61.3957C208.95 58.2357 208.29 54.8457 208.29 51.2157C208.29 47.5857 208.95 44.1757 210.24 41.0357C211.53 37.8757 213.34 35.1557 215.66 32.8657C217.98 30.5757 220.66 28.7457 223.75 27.4157C226.84 26.0857 230.13 25.4157 233.63 25.4157C237.13 25.4157 240.44 26.0857 243.51 27.4157C246.6 28.7457 249.29 30.5757 251.6 32.8657C253.91 35.1757 255.7 37.9057 257.02 41.0357C258.31 44.1957 258.97 47.5857 258.97 51.2157V54.6257H218.54C218.94 56.7157 219.57 58.5557 220.49 60.1757C221.4 61.7957 222.53 63.1757 223.9 64.3157C225.26 65.4557 226.78 66.3157 228.44 66.9057C230.1 67.4957 231.84 67.7857 233.65 67.7857C236.19 67.7857 238.36 67.4457 240.19 66.7657C242.02 66.0857 243.47 65.2857 244.57 64.3857C245.86 63.4157 246.95 62.2857 247.78 60.9757H258.51C257.27 64.0257 255.56 66.7157 253.35 69.0657C252.37 70.0357 251.26 71.0157 250.04 71.9757C248.8 72.9557 247.37 73.8057 245.75 74.5657C244.13 75.3057 242.3 75.9157 240.3 76.3757C238.28 76.8257 236.07 77.0457 233.68 77.0457L233.65 77.0157H233.63ZM248.24 46.3357C247.98 44.9057 247.5 43.4757 246.77 42.0457C246.05 40.6157 245.08 39.3757 243.84 38.2857C242.62 37.2157 241.15 36.3357 239.46 35.6457C237.77 34.9757 235.82 34.6257 233.61 34.6257C231.92 34.6257 230.28 34.8857 228.69 35.4057C227.1 35.9257 225.64 36.6857 224.31 37.6957C222.98 38.6957 221.86 39.9357 220.95 41.4057C220.04 42.8757 219.4 44.5057 219 46.3257H248.23V46.3457L248.24 46.3357Z" fill="white"/>
<path d="M286.25 77.0157C282.94 77.0157 279.87 76.3957 277.04 75.1657C274.21 73.9357 271.75 72.1957 269.64 69.9557C267.54 67.7157 265.88 65.0057 264.67 61.8157C263.46 58.6457 262.86 55.0857 262.86 51.1957C262.86 47.3057 263.46 43.7657 264.67 40.5757C265.88 37.3857 267.53 34.6757 269.64 32.4357C271.75 30.1957 274.23 28.4557 277.04 27.2257C279.87 25.9857 282.94 25.3757 286.25 25.3757C288.79 25.3757 291.03 25.7757 292.98 26.5457C294.93 27.3257 296.55 28.1657 297.84 29.0857C299.39 30.1857 300.74 31.3957 301.84 32.6857H302.32V7.84568H312.55V76.0357H302.32V69.7057H301.84C300.74 71.0657 299.41 72.3057 297.84 73.4157C296.55 74.3257 294.93 75.1557 292.98 75.8957C291.03 76.6357 288.79 77.0157 286.25 77.0157ZM288.2 67.7757C292.36 67.7757 295.75 66.3657 298.38 63.5357C301 60.7057 302.33 56.6057 302.33 51.2057C302.33 45.8057 301.02 41.7057 298.38 38.8957C295.74 36.0657 292.36 34.6557 288.2 34.6557C283.78 34.6557 280.25 36.0657 277.58 38.8957C274.91 41.7257 273.58 45.8257 273.58 51.2057C273.58 56.5857 274.91 60.7057 277.58 63.5357C280.24 66.3657 283.77 67.7757 288.2 67.7757Z" fill="white"/>
<path d="M341.79 77.0157C335.68 77.0157 330.91 75.2557 327.48 71.7057C324.03 68.1657 322.32 62.9457 322.32 56.0657V26.3457H332.55V55.0757C332.55 59.4957 333.53 62.7157 335.48 64.7157C337.43 66.7357 340.34 67.7357 344.24 67.7357C346.19 67.7357 347.98 67.3757 349.66 66.6657C351.32 65.9557 352.76 64.9557 353.99 63.6957C355.21 62.4357 356.18 60.9057 356.87 59.1057C357.54 57.3257 357.89 55.3257 357.89 53.1257V26.3457H368.12V76.0357H357.89V69.2257H357.41C356.5 70.6557 355.31 71.9457 353.81 73.1257C352.52 74.0957 350.9 74.9857 348.95 75.7957C347 76.6057 344.62 77.0157 341.84 77.0157H341.81H341.79Z" fill="white"/>
<path d="M399.75 77.0157C396.25 77.0157 392.95 76.3757 389.9 75.1157C386.85 73.8557 384.21 72.0657 382 69.7557C379.79 67.4457 378.05 64.7157 376.79 61.5657C375.51 58.4057 374.89 54.9557 374.89 51.1857C374.89 47.4157 375.53 43.9557 376.79 40.8057C378.05 37.6457 379.79 34.9257 382 32.6357C384.21 30.3257 386.85 28.5457 389.9 27.2757C392.95 26.0157 396.23 25.3757 399.75 25.3757C402.22 25.3757 404.46 25.6357 406.48 26.1557C408.5 26.6757 410.29 27.3657 411.88 28.2057C413.47 29.0457 414.85 30.0157 416.02 31.1157C417.19 32.2157 418.23 33.3257 419.14 34.4257C421.21 37.0257 422.71 40.0157 423.62 43.3957H412.91C412.39 41.7757 411.55 40.3057 410.37 39.0157C409.39 37.9157 408.06 36.9157 406.37 35.9957C404.68 35.0857 402.47 34.6357 399.75 34.6357C397.8 34.6357 395.97 35.0357 394.25 35.8057C392.53 36.5757 391.04 37.6857 389.77 39.1157C388.51 40.5457 387.49 42.2857 386.75 44.3257C386.01 46.3757 385.63 48.6557 385.63 51.1857C385.63 53.7157 386.01 56.0157 386.75 58.0457C387.49 60.0957 388.51 61.8257 389.77 63.2557C391.05 64.6857 392.53 65.7957 394.25 66.5657C395.97 67.3457 397.8 67.7357 399.75 67.7357C402.54 67.7357 404.82 67.2857 406.56 66.3757C408.32 65.4657 409.72 64.4657 410.75 63.3557C411.92 62.1157 412.8 60.6657 413.39 58.9757H423.62C422.71 62.4257 421.22 65.4457 419.14 68.0257C418.23 69.1257 417.19 70.2157 416.02 71.2857C414.85 72.3557 413.47 73.3257 411.88 74.1657C410.29 75.0057 408.48 75.6857 406.48 76.2157C404.46 76.7357 402.22 76.9957 399.75 76.9957V77.0157Z" fill="white"/>
<path d="M431.9 35.6157H426.05V26.3557H431.9V15.6257H442.13V26.3557H457.24V35.6157H442.13V66.7957H457.72V76.0557H431.9V35.6157Z" fill="white"/>
<path d="M469.6 19.0557C467.91 19.0557 466.48 18.4657 465.31 17.2957C464.14 16.1257 463.55 14.6957 463.55 13.0057C463.55 11.3157 464.14 9.86568 465.31 8.65568C466.48 7.44568 467.91 6.86568 469.6 6.86568C471.29 6.86568 472.74 7.46568 473.93 8.65568C475.14 9.86568 475.74 11.3157 475.74 13.0057C475.74 14.6957 475.14 16.1257 473.93 17.2957C472.72 18.4657 471.29 19.0557 469.6 19.0557ZM464.54 26.3657H474.77V76.0557H464.54V26.3657Z" fill="white"/>
<path d="M479.64 26.3657H490.37L501.08 66.7957H507.41L518.12 26.3657H528.83L515.19 76.0557H493.27L479.63 26.3657H479.65H479.64Z" fill="white"/>
<path d="M556.12 77.0157C552.62 77.0157 549.31 76.3457 546.24 75.0157C543.15 73.6857 540.46 71.8557 538.15 69.5657C535.84 67.2557 534.05 64.5257 532.73 61.3957C531.44 58.2357 530.78 54.8457 530.78 51.2157C530.78 47.5857 531.44 44.1757 532.73 41.0357C534.02 37.8757 535.83 35.1557 538.15 32.8657C540.46 30.5557 543.15 28.7457 546.24 27.4157C549.33 26.0857 552.62 25.4157 556.12 25.4157C559.62 25.4157 562.93 26.0857 566 27.4157C569.09 28.7457 571.78 30.5757 574.09 32.8657C576.4 35.1757 578.19 37.9057 579.51 41.0357C580.8 44.1957 581.46 47.5857 581.46 51.2157V54.6257H541.03C541.43 56.7157 542.06 58.5557 542.98 60.1757C543.89 61.7957 545.02 63.1757 546.39 64.3157C547.75 65.4557 549.27 66.3157 550.93 66.9057C552.59 67.4957 554.33 67.7857 556.14 67.7857C558.68 67.7857 560.85 67.4457 562.68 66.7657C564.49 66.0757 565.96 65.2857 567.06 64.3857C568.35 63.4157 569.44 62.2857 570.27 60.9757H581C579.76 64.0257 578.05 66.7157 575.84 69.0657C574.86 70.0357 573.75 71.0157 572.53 71.9757C571.29 72.9557 569.86 73.8057 568.24 74.5657C566.62 75.3057 564.79 75.9157 562.79 76.3757C560.77 76.8257 558.56 77.0457 556.17 77.0457L556.14 77.0157H556.12ZM570.73 46.3357C570.47 44.9057 569.99 43.4757 569.26 42.0457C568.53 40.6157 567.57 39.3757 566.33 38.2857C565.11 37.2157 563.64 36.3357 561.95 35.6457C560.26 34.9757 558.31 34.6257 556.1 34.6257C554.41 34.6257 552.77 34.8857 551.18 35.4057C549.59 35.9257 548.13 36.6857 546.8 37.6957C545.47 38.6957 544.35 39.9357 543.44 41.4057C542.53 42.8757 541.89 44.5057 541.49 46.3257H570.72V46.3457L570.73 46.3357Z" fill="white"/>
<path d="M594.81 77.0557C593.12 77.0557 591.69 76.4657 590.52 75.2957C589.35 74.1257 588.76 72.6957 588.76 71.0057C588.76 69.3157 589.35 67.8657 590.52 66.6557C591.69 65.4457 593.12 64.8657 594.81 64.8657C596.5 64.8657 597.95 65.4657 599.14 66.6557C600.35 67.8657 600.95 69.3157 600.95 71.0057C600.95 72.6957 600.35 74.1257 599.14 75.2957C597.93 76.4657 596.5 77.0557 594.81 77.0557Z" fill="white"/>
<path d="M629.45 76.9956C626.15 76.9956 623.09 76.3756 620.28 75.1456C617.46 73.9156 615 72.1856 612.9 69.9556C610.79 67.7256 609.14 65.0156 607.95 61.8456C606.75 58.6756 606.15 55.1456 606.15 51.2556C606.15 47.3656 606.75 43.8456 607.95 40.6756C609.15 37.5056 610.8 34.7956 612.9 32.5656C615 30.3356 617.46 28.6056 620.28 27.3756C623.1 26.1456 626.15 25.5256 629.45 25.5256C631.97 25.5256 634.21 25.9156 636.15 26.6956C638.09 27.4756 639.71 28.3156 641.01 29.2156C642.56 30.3156 643.89 31.5156 644.99 32.8056H645.48V26.4956H655.68V76.0156H645.48V69.2156H644.99C643.89 70.6456 642.56 71.9356 641.01 73.0956C639.71 74.0656 638.1 74.9556 636.15 75.7656C634.21 76.5756 631.97 76.9756 629.45 76.9756V76.9956ZM631.39 67.7656C635.53 67.7656 638.92 66.3556 641.54 63.5456C644.16 60.7256 645.47 56.6356 645.47 51.2656C645.47 45.8956 644.16 41.7956 641.54 38.9856C638.92 36.1656 635.53 34.7656 631.39 34.7656C626.99 34.7656 623.46 36.1756 620.81 38.9856C618.15 41.8056 616.83 45.8956 616.83 51.2656C616.83 56.6356 618.16 60.7356 620.81 63.5456C623.46 66.3656 626.99 67.7656 631.39 67.7656Z" fill="white"/>
<path d="M670.43 19.2156C668.75 19.2156 667.32 18.6356 666.16 17.4656C665 16.2956 664.41 14.8756 664.41 13.1956C664.41 11.5156 664.99 10.0756 666.16 8.87564C667.33 7.67564 668.75 7.07564 670.43 7.07564C672.11 7.07564 673.55 7.67564 674.75 8.87564C675.95 10.0756 676.55 11.5156 676.55 13.1956C676.55 14.8756 675.95 16.3056 674.75 17.4656C673.55 18.6356 672.11 19.2156 670.43 19.2156ZM665.38 26.4956H675.58V76.0156H665.38V26.4956Z" fill="white"/>
</g>
</g>
<defs>
<clipPath id="clip0_210_499">
<rect width="677" height="84" fill="white"/>
</clipPath>
<clipPath id="clip1_210_499">
<rect width="110.841" height="83.2575" fill="white" transform="translate(0.920654 0.331932)"/>
</clipPath>
<clipPath id="clip2_210_499">
<rect width="533" height="70.19" fill="white" transform="translate(144 6.86568)"/>
</clipPath>
</defs>
</svg>